<svg width="33" height="33" viewBox="0 0 33 33" fill="none" xmlns="http://www.w3.org/2000/svg">
<g clip-path="url(#clip0_1_1202)">
<path d="M11.4287 32.7285C14.4037 32.7285 16.8037 30.3285 16.8037 27.3535V21.9785H11.4287C8.45371 21.9785 6.05371 24.3785 6.05371 27.3535C6.05371 30.3285 8.45371 32.7285 11.4287 32.7285Z" fill="#0ACF83"/>
<path d="M6.05371 16.6035C6.05371 13.6285 8.45371 11.2285 11.4287 11.2285H16.8037V21.9785H11.4287C8.45371 21.9785 6.05371 19.5785 6.05371 16.6035Z" fill="#A259FF"/>
<path d="M6.05371 5.85352C6.05371 2.87852 8.45371 0.478516 11.4287 0.478516H16.8037V11.2285H11.4287C8.45371 11.2285 6.05371 8.82852 6.05371 5.85352Z" fill="#F24E1E"/>
<path d="M16.8037 0.478516H22.1787C25.1537 0.478516 27.5537 2.87852 27.5537 5.85352C27.5537 8.82852 25.1537 11.2285 22.1787 11.2285H16.8037V0.478516Z" fill="#FF7262"/>
<path d="M27.5537 16.6035C27.5537 19.5785 25.1537 21.9785 22.1787 21.9785C19.2037 21.9785 16.8037 19.5785 16.8037 16.6035C16.8037 13.6285 19.2037 11.2285 22.1787 11.2285C25.1537 11.2285 27.5537 13.6285 27.5537 16.6035Z" fill="#1ABCFE"/>
</g>
<defs>
<clipPath id="clip0_1_1202">
<rect width="32" height="32" fill="white" transform="translate(0.0537109 0.478516)"/>
</clipPath>
</defs>
</svg>
