<svg width="33" height="32" viewBox="0 0 33 32" fill="none" xmlns="http://www.w3.org/2000/svg">
<g clip-path="url(#clip0_1_1168)">
<path d="M7.60181 20.1739C7.60181 22.0064 6.10731 23.5031 4.27456 23.5031C2.44181 23.5031 0.945557 22.0064 0.945557 20.1739C0.945557 18.3414 2.44231 16.8446 4.27481 16.8446H7.60206L7.60181 20.1739ZM9.27906 20.1739C9.27906 18.3414 10.7758 16.8446 12.6083 16.8446C14.4408 16.8446 15.9376 18.3411 15.9376 20.1739V28.5076C15.9376 30.3401 14.4411 31.8369 12.6083 31.8369C10.7758 31.8369 9.27906 30.3401 9.27906 28.5076V20.1739Z" fill="#DE1C59"/>
<path d="M12.6083 6.80789C10.7758 6.80789 9.27906 5.31339 9.27906 3.48064C9.27906 1.64789 10.7758 0.151642 12.6083 0.151642C14.4408 0.151642 15.9376 1.64839 15.9376 3.48089V6.80814L12.6083 6.80789ZM12.6083 8.48514C14.4408 8.48514 15.9376 9.98189 15.9376 11.8144C15.9376 13.6469 14.4411 15.1436 12.6083 15.1436H4.27456C2.44206 15.1436 0.945557 13.6471 0.945557 11.8144C0.945557 9.98189 2.44231 8.48514 4.27481 8.48514H12.6083Z" fill="#35C5F0"/>
<path d="M25.9743 11.8144C25.9743 9.98189 27.4688 8.48514 29.3015 8.48514C31.1343 8.48514 32.6308 9.98189 32.6308 11.8144C32.6308 13.6469 31.1341 15.1436 29.3015 15.1436H25.9743V11.8144ZM24.2971 11.8144C24.2971 13.6469 22.8003 15.1436 20.9678 15.1436C19.1353 15.1436 17.6385 13.6471 17.6385 11.8144V3.48064C17.6385 1.64814 19.1351 0.151642 20.9678 0.151642C22.8003 0.151642 24.2971 1.64839 24.2971 3.48089V11.8144Z" fill="#2EB57D"/>
<path d="M20.9678 25.1804C22.8003 25.1804 24.2971 26.6749 24.2971 28.5076C24.2971 30.3404 22.8003 31.8369 20.9678 31.8369C19.1353 31.8369 17.6385 30.3401 17.6385 28.5076V25.1804H20.9678ZM20.9678 23.5031C19.1353 23.5031 17.6385 22.0064 17.6385 20.1739C17.6385 18.3414 19.1351 16.8446 20.9678 16.8446H29.3015C31.1341 16.8446 32.6308 18.3411 32.6308 20.1739C32.6308 22.0064 31.1341 23.5031 29.3015 23.5031H20.9678Z" fill="#EBB02E"/>
</g>
<defs>
<clipPath id="clip0_1_1168">
<rect width="32" height="32" fill="white" transform="translate(0.788086 -0.00585938)"/>
</clipPath>
</defs>
</svg>
