<svg width="32" height="33" viewBox="0 0 32 33" fill="none" xmlns="http://www.w3.org/2000/svg">
<g clip-path="url(#clip0_1_1178)">
<path d="M32 14.6825H22.6427L30.7465 10.0038L28.9669 6.92041L20.8631 11.5992L25.5408 3.49604L22.4574 1.71529L17.7798 9.81854V0.461914H14.2203V9.81941L9.54075 1.71529L6.45837 3.49516L11.137 11.5982L3.03312 6.92041L1.25338 10.0029L9.35713 14.6817H0V18.2413H9.35625L1.25338 22.92L3.03312 26.0034L11.1361 21.3255L6.45738 29.4287L9.54075 31.2085L14.2194 23.1045V32.4619H17.7789V23.1053L22.4566 31.2085L25.5397 29.4287L20.8612 21.3247L28.965 26.0034L30.745 22.92L22.6419 18.2422H31.9981V14.6825H32ZM16 21.3032C13.316 21.3032 11.1405 19.1278 11.1405 16.4437C11.1405 13.7595 13.316 11.584 16 11.584C18.684 11.584 20.8594 13.7595 20.8594 16.4435C20.8594 19.1277 18.684 21.3032 16 21.3032Z" fill="#625DF5"/>
</g>
<defs>
<clipPath id="clip0_1_1178">
<rect width="32" height="32" fill="white" transform="translate(0 0.461914)"/>
</clipPath>
</defs>
</svg>
