<svg width="39" height="33" viewBox="0 0 39 33" fill="none" xmlns="http://www.w3.org/2000/svg">
<g clip-path="url(#clip0_1_1186)">
<path d="M17.593 1.38765L3.39413 7.263C2.60455 7.5897 2.61273 8.71119 3.40737 9.02628L17.6655 14.6805C18.9183 15.1774 20.3135 15.1774 21.5663 14.6805L35.8247 9.02613C36.6191 8.71134 36.6274 7.58985 35.8375 7.263L21.6389 1.38751C20.3435 0.851544 18.8884 0.851693 17.593 1.38765Z" fill="#FFBF00"/>
<path d="M20.881 17.7681V31.8931C20.881 32.5649 21.5582 33.025 22.1827 32.7775L38.0708 26.6104C38.248 26.5401 38.4 26.4183 38.5071 26.2606C38.6142 26.103 38.6714 25.9167 38.6714 25.7262V11.6011C38.6714 10.9292 37.994 10.4693 37.3695 10.7168L21.4814 16.8837C21.3042 16.954 21.1522 17.0759 21.0451 17.2336C20.938 17.3913 20.8808 17.5775 20.8809 17.7681" fill="#26B5F8"/>
<path d="M17.1709 18.4969L12.4558 20.7736L11.977 21.005L2.02332 25.7742C1.39239 26.0786 0.587036 25.6188 0.587036 24.9179V11.6603C0.587036 11.4066 0.71712 11.1877 0.891557 11.0228C0.963066 10.9517 1.04412 10.891 1.13238 10.8422C1.37022 10.6995 1.70957 10.6614 1.99801 10.7756L17.0916 16.7559C17.8589 17.0602 17.9191 18.1354 17.1709 18.4969Z" fill="#ED3049"/>
<path d="M17.1709 18.4969L12.4557 20.7735L0.891357 11.0229C0.962866 10.9519 1.04392 10.8911 1.13218 10.8424C1.37002 10.6996 1.70937 10.6615 1.99781 10.7757L17.0914 16.756C17.8587 17.0603 17.9191 18.1354 17.1709 18.4969Z" fill="black" fill-opacity="0.25"/>
</g>
<defs>
<clipPath id="clip0_1_1186">
<rect width="38.1023" height="32" fill="white" transform="translate(0.587036 0.985657)"/>
</clipPath>
</defs>
</svg>
