<svg width="33" height="32" viewBox="0 0 33 32" fill="none" xmlns="http://www.w3.org/2000/svg">
<g clip-path="url(#clip0_1_1239)">
<path d="M24.5518 -0.00195312H7.55176C3.40962 -0.00195312 0.0517578 3.35591 0.0517578 7.49805V24.498C0.0517578 28.6402 3.40962 31.998 7.55176 31.998H24.5518C28.6939 31.998 32.0518 28.6402 32.0518 24.498V7.49805C32.0518 3.35591 28.6939 -0.00195312 24.5518 -0.00195312Z" fill="#4353FF"/>
<path d="M21.1899 12.9275C21.1899 12.9275 19.463 18.3378 19.3354 18.7972C19.2844 18.3463 18.0254 8.62305 18.0254 8.62305C15.082 8.62305 13.5168 10.7157 12.683 12.9275C12.683 12.9275 10.5819 18.3548 10.4118 18.8057C10.4033 18.3803 10.0885 12.9785 10.0885 12.9785C9.90976 10.2648 7.43426 8.62305 5.42676 8.62305L7.84276 23.3483C10.9221 23.3398 12.581 21.2557 13.4486 19.0354C13.4486 19.0354 15.2946 14.246 15.3713 14.0334C15.3883 14.2375 16.6983 23.3483 16.6983 23.3483C19.7863 23.3483 21.4536 21.4003 22.3468 19.265L26.6768 8.62305C23.6228 8.62305 22.015 10.7072 21.1899 12.9275Z" fill="white"/>
</g>
<defs>
<clipPath id="clip0_1_1239">
<rect width="32" height="32" fill="white" transform="translate(0.0517578 -0.00195312)"/>
</clipPath>
</defs>
</svg>
